<?xml version="1.0" standalone="no"?>
<!DOCTYPE svg PUBLIC "-//W3C//DTD SVG 20010904//EN"
 "http://www.w3.org/TR/2001/REC-SVG-20010904/DTD/svg10.dtd">
<svg version="1.0" xmlns="http://www.w3.org/2000/svg"
 width="512.000000pt" height="512.000000pt" viewBox="0 0 512.000000 512.000000"
 preserveAspectRatio="xMidYMid meet">

<g transform="translate(0.000000,512.000000) scale(0.100000,-0.100000)"
fill="#ffffff" stroke="none">
<path d="M1095 4000 c-151 -40 -260 -106 -373 -225 -61 -64 -90 -106 -125
-177 -86 -172 -82 -126 -82 -1038 l0 -805 23 -79 c86 -297 311 -505 609 -562
110 -21 2715 -21 2825 0 298 57 519 259 610 558 22 72 22 79 26 838 2 527 0
789 -8 842 -26 178 -96 317 -230 449 -73 73 -102 94 -191 138 -59 29 -134 58
-174 66 -59 12 -280 15 -1455 14 -1316 0 -1388 -1 -1455 -19z m1508 -1150
c268 -157 487 -287 487 -290 0 -4 -764 -454 -1022 -603 l-48 -27 0 630 0 630
48 -27 c27 -16 267 -156 535 -313z"/>
</g>
</svg>
